<svg xmlns="http://www.w3.org/2000/svg" width="1024" height="1024" viewBox="0 0 512 512"><defs><linearGradient id="appf" x1="0" x2="0" y1="0" y2="1"><stop offset="0" stop-color="#DC8262"/><stop offset="1" stop-color="#B85636"/></linearGradient></defs><rect width="512" height="512" x="0" y="0" fill="url(#appf)" rx="115"/><path fill="none" stroke="#FFF" stroke-linecap="round" stroke-opacity=".28" stroke-width="34" d="M 353.57 121.70 A 166 166 0 1 1 158.43 121.70"/><path fill="none" stroke="#FFF" stroke-linecap="round" stroke-width="34" d="M 353.57 121.70 A 166 166 0 1 1 136.43 371.15"/><path fill="#FFF" d="M 266.50 256.00 L 256.00 124.00 L 245.50 256.00 Z"/><path fill="#FFF" d="M 264.83 261.68 L 311.66 169.38 L 247.17 250.32 Z"/><path fill="#FFF" d="M 260.36 265.55 L 366.47 205.55 L 251.64 246.45 Z"/><path fill="#FFF" d="M 254.51 266.39 L 347.46 269.15 L 257.49 245.61 Z"/><path fill="#FFF" d="M 249.12 263.94 L 355.76 342.44 L 262.88 248.06 Z"/><path fill="#FFF" d="M 245.93 258.96 L 285.75 357.32 L 266.07 253.04 Z"/><path fill="#FFF" d="M 245.93 253.04 L 220.67 376.32 L 266.07 258.96 Z"/><path fill="#FFF" d="M 249.12 248.06 L 184.17 318.24 L 262.88 263.94 Z"/><path fill="#FFF" d="M 254.51 245.61 L 125.34 274.79 L 257.49 266.39 Z"/><path fill="#FFF" d="M 260.36 246.45 L 157.54 211.04 L 251.64 265.55 Z"/><path fill="#FFF" d="M 264.83 250.32 L 191.77 156.06 L 247.17 261.68 Z"/><circle cx="256" cy="256" r="14.7" fill="#FFF"/></svg>