<svg xmlns="http://www.w3.org/2000/svg" width="380" height="288" fill="none" font-family="-apple-system, BlinkMacSystemFont, 'SF Pro Text', Helvetica, Arial, sans-serif" viewBox="0 0 380 288"><style>.title{font-size:13px;font-weight:600;fill:#1d1d1f}.detail{font-size:11px;fill:#86868b}.pct{font-size:13px;font-weight:600}.foot,.reset{font-size:11px;fill:#aeaeb2}.menubar{font-size:12px;fill:#1d1d1f;font-weight:500}</style><rect width="380" height="288" fill="#f2f2f7" rx="14"/><rect width="380" height="34" x="0" y="0" fill="#fff" rx="14"/><rect width="380" height="14" x="0" y="20" fill="#fff"/><text x="300" y="22" class="menubar">42%</text><circle cx="288" cy="16" r="6" fill="none" stroke="#34c759" stroke-opacity=".3" stroke-width="1.6"/><path fill="none" stroke="#34c759" stroke-linecap="round" stroke-width="1.6" d="M 288.00 10.00 A 6 6 0 0 1 290.89 21.26"/><path fill="#34c759" d="M 288.00 13.00 L 288.74 15.26 L 291.00 16.00 L 288.74 16.74 L 288.00 19.00 L 287.26 16.74 L 285.00 16.00 L 287.26 15.26 Z"/><rect width="352" height="230" x="14" y="44" fill="#fff" stroke="#e5e5ea" stroke-width="1" rx="12"/><text x="32" y="74" class="title">Session</text><text x="86" y="74" class="detail">5-hour limit</text><text x="348" y="74" fill="#34c759" class="pct" text-anchor="end">42%</text><rect width="316" height="5" x="32" y="82" fill="#e5e5ea" rx="2.5"/><rect width="133" height="5" x="32" y="82" fill="#34c759" rx="2.5"/><text x="32" y="102" class="reset">Resets at 7:59 PM</text><text x="32" y="132" class="title">Weekly</text><text x="84" y="132" class="detail">All models</text><text x="348" y="132" fill="#34c759" class="pct" text-anchor="end">18%</text><rect width="316" height="5" x="32" y="140" fill="#e5e5ea" rx="2.5"/><rect width="57" height="5" x="32" y="140" fill="#34c759" rx="2.5"/><text x="32" y="160" class="reset">Resets on 21 Jun 2026 at 9:00 AM</text><text x="32" y="190" class="title">Weekly</text><text x="84" y="190" class="detail">Sonnet</text><text x="348" y="190" fill="#34c759" class="pct" text-anchor="end">23%</text><rect width="316" height="5" x="32" y="198" fill="#e5e5ea" rx="2.5"/><rect width="73" height="5" x="32" y="198" fill="#34c759" rx="2.5"/><text x="32" y="218" class="reset">Resets on 21 Jun 2026 at 9:00 AM</text><rect width="316" height="1" x="32" y="236" fill="#e5e5ea"/><text x="32" y="256" class="foot">Updated 3:42 PM</text><text x="348" y="256" class="foot" text-anchor="end">⟳</text></svg>